<svg xmlns="http://www.w3.org/2000/svg" viewBox="0 0 64 64" fill="none">
  <rect width="64" height="64" rx="16" fill="#0D0D0D"/>
  <path d="M40.3 20.7c-2.3-1.7-5-2.6-8.1-2.6-7.4 0-12.7 5-12.7 13.9 0 8.8 5.3 13.9 12.7 13.9 3.1 0 5.8-.9 8.1-2.6l-2.5-4.2a9.3 9.3 0 0 1-5.1 1.4c-4.5 0-7.4-3-7.4-8.5 0-5.4 2.9-8.5 7.4-8.5 2 0 3.7.5 5.1 1.4l2.5-4.2Z" fill="#fff"/>
  <path d="M42.7 24.5a9.7 9.7 0 0 1 5 1.3l2.1-3.7a14.4 14.4 0 0 0-7.6-2.1c-5.3 0-9 2.8-9 7.2 0 4.5 3.2 6.2 7.7 7.2 3.2.8 4.4 1.5 4.4 3.1 0 1.5-1.2 2.5-3.8 2.5a11.5 11.5 0 0 1-6.4-2l-2.2 3.8a15.8 15.8 0 0 0 8.7 2.5c5.8 0 9.6-2.8 9.6-7.6 0-4.6-3.1-6.3-7.7-7.4-3-.7-4.5-1.3-4.5-2.9 0-1.2 1.1-1.9 3.6-1.9Z" fill="#0071E3"/>
</svg>
